# xmcd
#
# Track frame offsets:
#	150
#	15449
#	34625
#	50423
#	63950
#	78066
#	90595
#	104726
#	117191
#	134152
#	147096
#	160646
#	172698
#	189976
#	202782
#	218252
#
# Disc length: 3278 seconds
#
# Revision: 0
# Processed by: cddbd v1.5.2PL0 Copyright (c) Steve Scherf et al.
# Submitted via: EasyCDDAExtractor 16.0.6.1
#
DISCID=bf0ccc10
DTITLE=Μπέλλου Σωτηρία - Ογδόντα μεγάλες επιτυχίες-Σ. Μπέλλου 1
DYEAR=2010
DGENRE=Ποικίλη
TTITLE0=Μπέλλου Σωτηρία - Συννεφιασμένη Κυριακή [Βασίλης Τσιτσάνης]
TTITLE1=Μπέλλου Σωτηρία - Το μινόρε της αυγής [Σ. Περιστέρης-Μ. Μάτσας]
TTITLE2=Μπέλλου Σωτηρία - Πριν το χάραμα μονάχος [Γ. Παπαϊωάννου-Χαρ. Βασιλειά
TTITLE2=δης]
TTITLE3=Μπέλλου Σωτηρία - Ξημερώνει και βραδιάζει [Βασίλης Τσιτσάνης]
TTITLE4=Μπέλλου Σωτηρία - Είδα κι έπαθα κυρά μου[Στ.Χρυσίνης/Στ.Παντελίδης-Χρ.
TTITLE4=Κολοκοτρώνης]
TTITLE5=Μπέλλου Σωτηρία - Όταν πίνεις στην ταβέρνα [Βασ. Τσιτσάνης]
TTITLE6=Μπέλλου Σωτηρία - Κάποια μάννα αναστενάζει [Β. Τσιτσάνης-Μπ. Μπακάλης]
TTITLE7=Μπέλλου Σωτηρία - Αραμπάς περνά [Βασίλης Τσιτσάνης]
TTITLE8=Μπέλλου Σωτηρία - Ο ναύτης [Γιώργος Μητσάκης]
TTITLE9=Μπέλλου Σωτηρία - Παραστράτησα για σένα [Κώστας Καπλάνης]
TTITLE10=Μπέλλου Σωτηρία - Το παιδί που είχες φίλο [Βασίλης Τσιτσάνης]
TTITLE11=Μπέλλου Σωτηρία - Η Μάρω [Απ. Χατζηχρήστος]
TTITLE12=Μπέλλου Σωτηρία - Αγάπησα και μίσησα [Π. Πετσάς-Κ. Κοφινιώτης]
TTITLE13=Μπέλλου Σωτηρία - Έκαψα την καλύβα μου [Μπ. Μπακάλης-Κ. Γόντικας]
TTITLE14=Μπέλλου Σωτηρία-Σαββόπουλος Διονύσης - Ζεϊμπέκικο [Διον. Σαββόπουλος]
TTITLE15=Μπέλλου Σωτηρία-Μούτσης Δήμος - Δε λες κουβέντα [Δ. Μούτσης-Κ. Τριπολ
TTITLE15=ίτης]
EXTD=
EXTT0=
EXTT1=
EXTT2=
EXTT3=
EXTT4=
EXTT5=
EXTT6=
EXTT7=
EXTT8=
EXTT9=
EXTT10=
EXTT11=
EXTT12=
EXTT13=
EXTT14=
EXTT15=
PLAYORDER=
